%FSLAX33Y33*%
%MOMM*%
%ADD10C,1.649999*%
%ADD11C,1.*%
%ADD12C,1.05*%
%ADD13C,1.016*%
%ADD14C,1.016*%
%ADD15C,1.05*%
%ADD16C,1.65*%
%ADD17C,1.65*%
D10*
%LNhole_traces*%
G01*
X-22860Y20320D03*
X22860Y20320D03*
D11*
X-18425Y-32125D03*
X-11000Y-32225D03*
X-4850Y-8890D03*
X22250Y18300D03*
D10*
X22860Y-39370D03*
D11*
X17145Y-21450D03*
X13190Y-37805D03*
X-22150Y-8700D03*
%LNhole component 2c45c667da657ff7*%
D12*
X17145Y-16510D03*
X17145Y-13970D03*
X17145Y-11430D03*
X17145Y-8890D03*
%LNhole component 3d5d9854e51a6828*%
D13*
X-8890Y13970D03*
X-8890Y11430D03*
X-8890Y8890D03*
X-8890Y6350D03*
X-8890Y3810D03*
X-8890Y1270D03*
X-8890Y-1270D03*
X-8890Y-3810D03*
X-8890Y-6350D03*
X-8890Y-8890D03*
X-8890Y-11430D03*
X-8890Y-13970D03*
D14*
X8890Y-13970D03*
X8890Y-11430D03*
X8890Y-8890D03*
X8890Y-6350D03*
X8890Y-3810D03*
X8890Y-1270D03*
X8890Y1270D03*
X8890Y3810D03*
X8890Y6350D03*
X8890Y8890D03*
X8890Y11430D03*
X8890Y13970D03*
%LNhole component 6f932e20ef6d6c77*%
D15*
X17145Y14605D03*
X17145Y12065D03*
X17145Y9525D03*
X17145Y6985D03*
%LNhole component f8ca9c4e8fb87baf*%
D16*
X-20200Y-49530D03*
X-15200Y-49530D03*
X-10200Y-49530D03*
X-5200Y-49530D03*
%LNhole component 062dd51c8313847b*%
D17*
X20200Y-49530D03*
X15200Y-49530D03*
X10200Y-49530D03*
X5200Y-49530D03*
%LNhole component 49e19032fee71c5c*%
D15*
X-17100Y-8700D03*
X-17100Y-11240D03*
X-17100Y-13780D03*
X-17100Y-16320D03*
M02*