%FSLAX33Y33*%
%MOMM*%
%AMRect-W1600000-H1600000-RO1.000*
21,1,1.6,1.6,0.,0.,180*%
%AMRect-W1879600-H1879600-RO1.000*
21,1,1.8796,1.8796,0.,0.,180*%
%AMRect-W2500000-H2500000-RO1.500*
21,1,2.5,2.5,0.,0.,90*%
%AMRect-W2500000-H2500000-RO0.500*
21,1,2.5,2.5,0.,0.,270*%
%ADD10C,2.*%
%ADD11C,1.6*%
%ADD12Rect-W1600000-H1600000-RO1.000*%
%ADD13C,1.8796*%
%ADD14C,1.8796*%
%ADD15Rect-W1879600-H1879600-RO1.000*%
%ADD16R,1.6X1.6*%
%ADD17C,1.6*%
%ADD18C,2.5*%
%ADD19Rect-W2500000-H2500000-RO1.500*%
%ADD20C,2.5*%
%ADD21Rect-W2500000-H2500000-RO0.500*%
D10*
%LNbottom solder mask_traces*%
G01*
X-18425Y-32125D03*
X-11000Y-32225D03*
X-4850Y-8890D03*
X22250Y18300D03*
X17145Y-21450D03*
X13190Y-37805D03*
X-22150Y-8700D03*
%LNbottom solder mask component 2c45c667da657ff7*%
D11*
X17145Y-13970D03*
X17145Y-11430D03*
X17145Y-8890D03*
D12*
X17145Y-16510D03*
%LNbottom solder mask component 3d5d9854e51a6828*%
D13*
X-8890Y11430D03*
X-8890Y8890D03*
X-8890Y6350D03*
X-8890Y3810D03*
X-8890Y1270D03*
X-8890Y-1270D03*
X-8890Y-3810D03*
X-8890Y-6350D03*
X-8890Y-8890D03*
X-8890Y-11430D03*
X-8890Y-13970D03*
D14*
X8890Y-13970D03*
X8890Y-11430D03*
X8890Y-8890D03*
X8890Y-6350D03*
X8890Y-3810D03*
X8890Y-1270D03*
X8890Y1270D03*
X8890Y3810D03*
X8890Y6350D03*
X8890Y8890D03*
X8890Y11430D03*
X8890Y13970D03*
D15*
X-8890Y13970D03*
%LNbottom solder mask component 6f932e20ef6d6c77*%
D16*
X17145Y14605D03*
D17*
X17145Y12065D03*
X17145Y9525D03*
X17145Y6985D03*
%LNbottom solder mask component f8ca9c4e8fb87baf*%
D18*
X-15200Y-49530D03*
X-10200Y-49530D03*
X-5200Y-49530D03*
D19*
X-20200Y-49530D03*
%LNbottom solder mask component 062dd51c8313847b*%
D20*
X15200Y-49530D03*
X10200Y-49530D03*
X5200Y-49530D03*
D21*
X20200Y-49530D03*
%LNbottom solder mask component 49e19032fee71c5c*%
D16*
X-17100Y-8700D03*
D17*
X-17100Y-11240D03*
X-17100Y-13780D03*
X-17100Y-16320D03*
M02*