%FSLAX33Y33*%
%MOMM*%
%AMRect-W1600000-H1600000-RO1.000*
21,1,1.6,1.6,0.,0.,180*%
%AMRect-W1879600-H1879600-RO1.000*
21,1,1.8796,1.8796,0.,0.,180*%
%AMRect-W2500000-H2500000-RO1.500*
21,1,2.5,2.5,0.,0.,90*%
%AMRect-W2500000-H2500000-RO0.500*
21,1,2.5,2.5,0.,0.,270*%
%ADD10C,0.508*%
%ADD11C,1.016*%
%ADD12C,2.*%
%ADD13C,1.6*%
%ADD14Rect-W1600000-H1600000-RO1.000*%
%ADD15C,1.8796*%
%ADD16C,1.8796*%
%ADD17Rect-W1879600-H1879600-RO1.000*%
%ADD18R,1.6X1.6*%
%ADD19C,1.6*%
%ADD20C,2.5*%
%ADD21Rect-W2500000-H2500000-RO1.500*%
%ADD22C,2.5*%
%ADD23Rect-W2500000-H2500000-RO0.500*%
D10*
%LNbottom copper_traces*%
G01*
X-8890Y11405D02*
X3090Y18300D01*
X22250Y18300*
D11*
X13190Y-45840D02*
X15290Y-49580D01*
D10*
X15370Y16510D02*
X17275Y14605D01*
X-17145Y-20648D02*
X-3572Y-20648D01*
D11*
X-15240Y-46445D02*
X-8345Y-46445D01*
X-20200Y-49530D02*
X-16425Y-53305D01*
X5200Y-49530D02*
X8890Y-45840D01*
X6350Y-53340D02*
X10160Y-49530D01*
D10*
X8890Y1270D02*
X16970Y9350D01*
X-5925Y-14425D02*
X7150Y-1350D01*
X17145Y-13970D02*
X8995Y-13970D01*
X8890Y-1350D02*
X7150Y-1350D01*
D11*
X16475Y-53305D02*
X20200Y-49580D01*
X-16425Y-53305D02*
X16475Y-53305D01*
X17145Y-46355D02*
X19965Y-49175D01*
X17145Y-21450D02*
X17145Y-46355D01*
D10*
X-12870Y-17275D02*
X-12870Y-13970D01*
D11*
X-22250Y-47600D02*
X-22250Y0610D01*
D10*
X-14685Y-15610D02*
X-17145Y-13970D01*
D11*
X-15240Y-49530D02*
X-15240Y-46445D01*
X-22250Y-47600D02*
X-20320Y-49530D01*
X-18425Y-32050D02*
X-18425Y-46305D01*
D10*
X17145Y12065D02*
X8890Y3810D01*
X-4850Y-15675D02*
X7150Y-3675D01*
X-8890Y8890D02*
X4005Y16510D01*
X-17100Y-20648D02*
X-17145Y-16510D01*
X-4850Y-8890D02*
X-4850Y-11275D01*
X-7545Y-13970D02*
X-4850Y-11275D01*
D11*
X-8255Y-46445D02*
X-5325Y-49375D01*
D10*
X8800Y-11430D02*
X17145Y-11430D01*
X-14685Y-15610D02*
X-14685Y-18890D01*
X17145Y-8890D02*
X8890Y-8890D01*
D11*
X8890Y-45840D02*
X13190Y-45840D01*
D10*
X6775Y-6350D02*
X8800Y-6350D01*
X-3572Y-16697D02*
X6775Y-6350D01*
X7150Y-3675D02*
X8800Y-3675D01*
D11*
X-13970Y-53305D02*
X-10200Y-49535D01*
D10*
X4005Y16510D02*
X15370Y16510D01*
X-5925Y-17275D02*
X-5925Y-14425D01*
D11*
X-22250Y0610D02*
X-8890Y13970D01*
D10*
X-5925Y-17275D02*
X-12870Y-17275D01*
X-17100Y-11430D02*
X-12883Y-13957D01*
X-14575Y-19000D02*
X-4850Y-19000D01*
X-4850Y-15675*
D11*
X-18425Y-46305D02*
X-15200Y-49530D01*
D10*
X-7545Y-13970D02*
X-8890Y-13970D01*
D11*
X5200Y-49530D02*
X-5080Y-49530D01*
D10*
X-3572Y-20648D02*
X-3572Y-16697D01*
D11*
X13190Y-37805D02*
X13190Y-45840D01*
D12*
X-18425Y-32125D03*
X-11000Y-32225D03*
X-4850Y-8890D03*
X22250Y18300D03*
X17145Y-21450D03*
X13190Y-37805D03*
X-22150Y-8700D03*
%LNbottom copper component 2c45c667da657ff7*%
D13*
X17145Y-13970D03*
X17145Y-11430D03*
X17145Y-8890D03*
D14*
X17145Y-16510D03*
%LNbottom copper component 3d5d9854e51a6828*%
D15*
X-8890Y11430D03*
X-8890Y8890D03*
X-8890Y6350D03*
X-8890Y3810D03*
X-8890Y1270D03*
X-8890Y-1270D03*
X-8890Y-3810D03*
X-8890Y-6350D03*
X-8890Y-8890D03*
X-8890Y-11430D03*
X-8890Y-13970D03*
D16*
X8890Y-13970D03*
X8890Y-11430D03*
X8890Y-8890D03*
X8890Y-6350D03*
X8890Y-3810D03*
X8890Y-1270D03*
X8890Y1270D03*
X8890Y3810D03*
X8890Y6350D03*
X8890Y8890D03*
X8890Y11430D03*
X8890Y13970D03*
D17*
X-8890Y13970D03*
%LNbottom copper component 6f932e20ef6d6c77*%
D18*
X17145Y14605D03*
D19*
X17145Y12065D03*
X17145Y9525D03*
X17145Y6985D03*
%LNbottom copper component f8ca9c4e8fb87baf*%
D20*
X-15200Y-49530D03*
X-10200Y-49530D03*
X-5200Y-49530D03*
D21*
X-20200Y-49530D03*
%LNbottom copper component 062dd51c8313847b*%
D22*
X15200Y-49530D03*
X10200Y-49530D03*
X5200Y-49530D03*
D23*
X20200Y-49530D03*
%LNbottom copper component 49e19032fee71c5c*%
D18*
X-17100Y-8700D03*
D19*
X-17100Y-11240D03*
X-17100Y-13780D03*
X-17100Y-16320D03*
M02*